<?xml version="1.0" encoding="UTF-8"?>
<svg id="Capa_1" data-name="Capa 1" xmlns="http://www.w3.org/2000/svg" viewBox="0 0 569.06 141.73">
  <path d="M9.66,82.2h475.13c21.83,0,43.78.69,65.6,0,.31,0,.61,0,.92,0,12.87,0,12.89-20,0-20H76.18c-21.83,0-43.78-.69-65.6,0-.31,0-.61,0-.92,0-12.87,0-12.89,20,0,20h0Z" style="fill: #fff;"/>
  <path d="M470.96,18.75c24.22,18.45,48.44,36.91,72.66,55.36,3.52,2.68,7.04,5.37,10.56,8.05v-17.27c-23.53,16.98-47.07,33.95-70.6,50.93-3.33,2.4-6.66,4.8-9.99,7.2-4.37,3.15-6.5,8.7-3.59,13.68,2.53,4.32,9.28,6.76,13.68,3.59,23.53-16.98,47.07-33.95,70.6-50.93,3.33-2.4,6.66-4.8,9.99-7.2,6.52-4.7,6.23-12.52,0-17.27-24.22-18.45-48.44-36.91-72.66-55.36-3.52-2.68-7.04-5.37-10.56-8.05-4.3-3.28-11.19-.67-13.68,3.59-3.01,5.14-.72,10.4,3.59,13.68h0Z" style="fill: #fff;"/>
</svg>